# xmcd
#
# Track frame offsets: 
#        150
#        16188
#        52096
#        68223
#        87226
#        100120
#        117441
#        135044
#        147084
#        167091
#        179943
#        194463
#        213835
#        225974
#        243161
#        255090
#        284258
#        295805
#        310397
#        327338
#
# Disc length: 4555 seconds
#
# Revision: 2
# Processed by: cddbd v1.5.2PL0 Copyright (c) Steve Scherf et al.
# Submitted via: ExactAudioCopy v1.0b3
#
DISCID=1811c914
DTITLE=George Gershwin - The Very Best Of George Gershwin Songbook
DYEAR=2004
DGENRE=Jazz
TTITLE0=Neal Hefti Orchestra - Rhapsody in Blue (Neal Hefti Orchestra)
TTITLE1=Miles Davis - The Man I Love (Miles Davis)
TTITLE2=Gerry Mulligan - S Wonderful (Gerry Mulligan)
TTITLE3=Harry James - Blues (Harry James)
TTITLE4=Lester Young - A Foggy Day (Lester Young)
TTITLE5=Oscar Peterson - Oh Lady, Be Good (Oscar Peterson)
TTITLE6=George Wallington - Summertime (George Wallington)
TTITLE7=Clap Yo Hands (George Gershwin)
TTITLE8=Ralph Burns Orchestra - Strike Up The Band (Ralph Burns Orches
TTITLE8=tra)
TTITLE9=Art Tatum - Someone To Watch Over Me (Art Tatum)
TTITLE10=Al Cohn - How Long Has This Been Going On? (Al Cohn)
TTITLE11=Louis Bellson - Fascinating Rhythm (Louis Bellson)
TTITLE12=That Certain Feeling (George Gershwin)
TTITLE13=Charlie Parker - Embraceable You (Charlie Parker)
TTITLE14=Dave Brubeck - Love Walked In (Dave Brubeck)
TTITLE15=Buddy DeFranco - Mine (Buddy DeFranco)
TTITLE16=George Shearing - They All Laughed (George Shearing)
TTITLE17=Maybe (George Gershwin)
TTITLE18=Modern Jazz Quartet - But Not For Me (Modern Jazz Quartet)
TTITLE19=Buddy DeFranceo with the Glenn Miller New Orchestra - Rhapsod
TTITLE19=y In Blue (Buddy DeFranceo with the Glenn Miller New Orchestr
TTITLE19=a)
EXTD=YEAR: 2004
EXTT0=
EXTT1=
EXTT2=
EXTT3=
EXTT4=
EXTT5=
EXTT6=
EXTT7=
EXTT8=
EXTT9=
EXTT10=
EXTT11=
EXTT12=
EXTT13=
EXTT14=
EXTT15=
EXTT16=
EXTT17=
EXTT18=
EXTT19=
PLAYORDER=
